<?xml version="1.0" encoding="utf-8"?>
<!-- Generator: Adobe Illustrator 27.1.1, SVG Export Plug-In . SVG Version: 6.00 Build 0)  -->
<svg version="1.1" id="Capa_1" xmlns="http://www.w3.org/2000/svg" xmlns:xlink="http://www.w3.org/1999/xlink" x="0px" y="0px"
	 viewBox="0 0 16 16" style="enable-background:new 0 0 16 16;" xml:space="preserve">
<style type="text/css">
	.st0{fill:#FFFFFF;}
</style>
<path class="st0" d="M0.4,8c0-4.2,3.4-7.6,7.6-7.6s7.6,3.4,7.6,7.6s-3.4,7.6-7.6,7.6S0.4,12.2,0.4,8z M7.5,1.4
	C6.9,1.6,6.2,2.2,5.7,3.2c-0.2,0.3-0.3,0.7-0.4,1h2.2C7.5,4.2,7.5,1.4,7.5,1.4z M4.3,4.2c0.2-0.5,0.4-1,0.6-1.5
	C5,2.4,5.2,2.1,5.4,1.8C4.3,2.3,3.2,3.1,2.5,4.1L4.3,4.2L4.3,4.2z M3.7,7.5c0-0.8,0.1-1.6,0.3-2.4H2C1.6,5.9,1.4,6.7,1.3,7.5H3.7z
	 M5,5.1C4.8,5.9,4.7,6.7,4.7,7.5h2.9V5.1H5z M8.5,5.1v2.4h2.9c0-0.8-0.1-1.6-0.3-2.4H8.5z M4.7,8.5c0,0.8,0.1,1.6,0.3,2.4h2.5V8.5
	H4.7z M8.5,8.5v2.4H11c0.2-0.7,0.3-1.5,0.3-2.4H8.5z M5.3,11.8c0.1,0.4,0.3,0.7,0.5,1c0.5,1,1.2,1.6,1.8,1.8v-2.8H5.3z M5.5,14.2
	c-0.2-0.3-0.4-0.6-0.6-0.9c-0.2-0.5-0.5-1-0.6-1.5H2.5C3.3,12.9,4.3,13.7,5.5,14.2z M4,10.9c-0.2-0.8-0.3-1.6-0.3-2.4H1.3
	c0.1,0.8,0.3,1.7,0.6,2.4H4z M10.5,14.2c1.2-0.5,2.2-1.3,2.9-2.4h-1.7c-0.2,0.5-0.4,1-0.6,1.5C11,13.6,10.8,13.9,10.5,14.2z
	 M8.5,11.8v2.8c0.6-0.2,1.3-0.8,1.8-1.8c0.2-0.3,0.3-0.7,0.5-1C10.7,11.8,8.5,11.8,8.5,11.8z M12,10.9h2c0.3-0.7,0.6-1.5,0.6-2.4
	h-2.4C12.3,9.3,12.2,10.1,12,10.9z M14.7,7.5c-0.1-0.8-0.3-1.6-0.6-2.4h-2c0.2,0.7,0.3,1.5,0.3,2.4H14.7z M11.1,2.7
	c0.2,0.4,0.5,0.9,0.6,1.5h1.8c-0.7-1-1.7-1.9-2.9-2.4C10.8,2.1,11,2.4,11.1,2.7z M10.7,4.2c-0.1-0.3-0.3-0.7-0.4-1
	c-0.5-1-1.2-1.6-1.8-1.8v2.8H10.7z"/>
</svg>
