<?xml version="1.0" encoding="utf-8"?>
<!-- Generator: Adobe Illustrator 27.1.1, SVG Export Plug-In . SVG Version: 6.00 Build 0)  -->
<svg version="1.1" id="Capa_1" xmlns="http://www.w3.org/2000/svg" xmlns:xlink="http://www.w3.org/1999/xlink" x="0px" y="0px"
	 viewBox="0 0 16 16" style="enable-background:new 0 0 16 16;" xml:space="preserve">
<style type="text/css">
	.st0{fill:#FFFFFF;}
</style>
<path class="st0" d="M6.17,7.32L5.94,8H5.35l0.98-2.65h0.68L8,8H7.38L7.15,7.32H6.17z M7.04,6.93L6.68,5.86H6.65L6.29,6.93H7.04
	L7.04,6.93z"/>
<path class="st0" d="M3.77,4.82c0-0.58,0.48-1.06,1.06-1.06h3.7c0.58,0,1.06,0.48,1.06,1.06v1.59h1.59c0.58,0,1.06,0.48,1.06,1.06
	v3.7c0,0.58-0.48,1.06-1.06,1.06h-3.7c-0.58,0-1.06-0.48-1.06-1.06V9.59H4.82c-0.58,0-1.06-0.48-1.06-1.06V4.82z M4.82,4.3
	C4.53,4.3,4.3,4.53,4.3,4.82v3.7c0,0.29,0.24,0.53,0.53,0.53h3.7c0.29,0,0.53-0.24,0.53-0.53v-3.7c0-0.29-0.24-0.53-0.53-0.53H4.82z
	 M8.6,9.58c0.1,0.16,0.21,0.31,0.33,0.45c-0.4,0.3-0.88,0.53-1.47,0.68c0.1,0.12,0.24,0.34,0.29,0.46c0.59-0.19,1.1-0.44,1.53-0.79
	c0.41,0.35,0.92,0.61,1.55,0.78c0.07-0.13,0.22-0.35,0.33-0.47c-0.59-0.13-1.09-0.37-1.49-0.68c0.36-0.4,0.65-0.87,0.86-1.46h0.64V8
	H9.59v0.56H10C9.83,9,9.6,9.38,9.32,9.68C9.24,9.6,9.17,9.51,9.11,9.42C8.95,9.52,8.78,9.57,8.6,9.58z"/>
</svg>
